<?xml version="1.0" encoding="UTF-8"?>
<svg xmlns="http://www.w3.org/2000/svg" xmlns:xlink="http://www.w3.org/1999/xlink" width="200.5pt" height="38.5pt" viewBox="0 0 200.5 38.5" version="1.2">
<defs>
<clipPath id="clip1">
  <path d="M 1.039062 13 L 198.96875 13 L 198.96875 32 L 1.039062 32 Z M 1.039062 13 "/>
</clipPath>
</defs>
<g id="surface1">
<path style="fill:none;stroke-width:5.25;stroke-linecap:butt;stroke-linejoin:miter;stroke:rgb(0%,0%,0%);stroke-opacity:1;stroke-miterlimit:10;" d="M 1111.007508 69.351664 L 1111.007508 249.354708 " transform="matrix(0.0987179,0,0,-0.0987179,1.038462,38.00641)"/>
<g clip-path="url(#clip1)" clip-rule="nonzero">
<path style="fill:none;stroke-width:5.25;stroke-linecap:butt;stroke-linejoin:miter;stroke:rgb(0%,0%,0%);stroke-opacity:1;stroke-miterlimit:10;" d="M 4.002638 69.351664 L 2002.000812 69.351664 M 4.002638 114.342532 L 2002.000812 114.342532 M 4.002638 159.333401 L 2002.000812 159.333401 M 4.002638 204.363839 L 2002.000812 204.363839 M 4.002638 249.354708 L 2002.000812 249.354708 " transform="matrix(0.0987179,0,0,-0.0987179,1.038462,38.00641)"/>
</g>
<path style=" stroke:none;fill-rule:nonzero;fill:rgb(0%,0%,0%);fill-opacity:1;" d="M 142.253906 2.136719 C 144.875 -0.261719 156.269531 1.871094 158.890625 5.246094 L 158.890625 5.082031 C 155.773438 0.390625 145.371094 -1.742188 142.253906 2.136719 "/>
<path style=" stroke:none;fill-rule:nonzero;fill:rgb(0%,0%,0%);fill-opacity:1;" d="M 8.644531 28.296875 C 6.246094 26.929688 6.246094 23.03125 10.378906 22.03125 C 15.375 21.699219 17.707031 28.296875 13.375 30.558594 C 9.578125 32.292969 4.214844 30.558594 3.613281 26.03125 C 3.113281 20 6.710938 18.398438 10.945312 14.902344 C 13.875 12.003906 13.574219 10.46875 13.007812 7.90625 C 11.308594 9.003906 9.878906 11.402344 10.042969 14.101562 C 10.609375 22.996094 11.242188 26.5625 11.675781 33.226562 C 11.875 36.425781 11.042969 37.691406 9.109375 37.722656 C 6.445312 37.757812 4.914062 34.625 7.078125 33.292969 C 9.910156 31.925781 11.511719 36.65625 8.113281 36.789062 C 8.878906 37.355469 11.175781 38.023438 11.109375 33.726562 C 10.777344 26.296875 9.8125 22.332031 9.445312 13.167969 C 9.445312 10.171875 9.445312 7.773438 12.644531 5.441406 C 14.507812 7.839844 14.742188 13.101562 13.375 15.066406 C 10.910156 18.601562 4.8125 20.664062 4.878906 25.597656 C 5.179688 30.695312 9.8125 31.761719 13.277344 30.027344 C 16.140625 27.863281 14.242188 23.628906 10.609375 24.164062 C 8.246094 24.5625 7.113281 26.394531 8.644531 28.296875 "/>
<path style=" stroke:none;fill-rule:nonzero;fill:rgb(0%,0%,0%);fill-opacity:1;" d="M 24.753906 18.351562 C 25.421875 18.351562 26.457031 18.871094 26.53125 19.980469 C 25.644531 18.5 23.867188 20.054688 25.347656 21.238281 C 26.828125 21.980469 28.160156 18.648438 24.753906 17.757812 C 23.273438 17.464844 20.015625 18.722656 20.460938 22.941406 C 20.757812 27.679688 26.308594 27.976562 27.199219 23.460938 C 25.496094 27.605469 22.238281 27.234375 22.164062 23.460938 C 21.792969 20.203125 22.683594 17.90625 24.753906 18.351562 "/>
<path style="fill:none;stroke-width:5.25;stroke-linecap:butt;stroke-linejoin:miter;stroke:rgb(0%,0%,0%);stroke-opacity:1;stroke-miterlimit:10;" d="M 232.755682 99.345576 L 232.755682 219.360795 " transform="matrix(0.0987179,0,0,-0.0987179,1.038462,38.00641)"/>
<path style=" stroke:none;fill-rule:nonzero;fill:rgb(0%,0%,0%);fill-opacity:1;" d="M 34.527344 28.496094 L 91.613281 34.269531 L 91.613281 31.902344 L 34.527344 26.125 L 34.527344 28.496094 "/>
<path style="fill:none;stroke-width:6;stroke-linecap:butt;stroke-linejoin:miter;stroke:rgb(0%,0%,0%);stroke-opacity:1;stroke-miterlimit:10;" d="M 322.737419 294.345576 L 412.758726 294.345576 " transform="matrix(0.0987179,0,0,-0.0987179,1.038462,38.00641)"/>
<path style="fill:none;stroke-width:6;stroke-linecap:butt;stroke-linejoin:miter;stroke:rgb(0%,0%,0%);stroke-opacity:1;stroke-miterlimit:10;" d="M 322.737419 339.336445 L 412.758726 339.336445 " transform="matrix(0.0987179,0,0,-0.0987179,1.038462,38.00641)"/>
<path style=" stroke:none;fill-rule:nonzero;fill:rgb(0%,0%,0%);fill-opacity:1;" d="M 40.15625 3.292969 C 38.882812 0.554688 33.417969 2.953125 34.617188 5.691406 C 35.816406 8.429688 41.28125 6.015625 40.082031 3.292969 "/>
<path style="fill:none;stroke-width:5.25;stroke-linecap:butt;stroke-linejoin:miter;stroke:rgb(0%,0%,0%);stroke-opacity:1;stroke-miterlimit:10;" d="M 341.493506 331.857752 L 341.493506 103.104708 " transform="matrix(0.0987179,0,0,-0.0987179,1.038462,38.00641)"/>
<path style="fill:none;stroke-width:6;stroke-linecap:butt;stroke-linejoin:miter;stroke:rgb(0%,0%,0%);stroke-opacity:1;stroke-miterlimit:10;" d="M 514.017857 294.345576 L 603.999594 294.345576 " transform="matrix(0.0987179,0,0,-0.0987179,1.038462,38.00641)"/>
<path style=" stroke:none;fill-rule:nonzero;fill:rgb(0%,0%,0%);fill-opacity:1;" d="M 59.035156 7.734375 C 57.761719 4.996094 52.296875 7.394531 53.496094 10.132812 C 54.695312 12.871094 60.160156 10.460938 58.960938 7.734375 "/>
<path style="fill:none;stroke-width:5.25;stroke-linecap:butt;stroke-linejoin:miter;stroke:rgb(0%,0%,0%);stroke-opacity:1;stroke-miterlimit:10;" d="M 532.734375 286.866883 L 532.734375 84.34862 " transform="matrix(0.0987179,0,0,-0.0987179,1.038462,38.00641)"/>
<path style=" stroke:none;fill-rule:nonzero;fill:rgb(0%,0%,0%);fill-opacity:1;" d="M 77.839844 9.957031 C 76.566406 7.214844 71.105469 9.613281 72.304688 12.355469 C 73.503906 15.09375 78.964844 12.679688 77.765625 9.957031 "/>
<path style="fill:none;stroke-width:5.25;stroke-linecap:butt;stroke-linejoin:miter;stroke:rgb(0%,0%,0%);stroke-opacity:1;stroke-miterlimit:10;" d="M 723.262987 264.351664 L 723.262987 64.840706 " transform="matrix(0.0987179,0,0,-0.0987179,1.038462,38.00641)"/>
<path style=" stroke:none;fill-rule:nonzero;fill:rgb(0%,0%,0%);fill-opacity:1;" d="M 96.722656 18.839844 C 95.449219 16.101562 89.984375 18.5 91.183594 21.238281 C 92.382812 23.976562 97.847656 21.566406 96.648438 18.839844 "/>
<path style="fill:none;stroke-width:5.25;stroke-linecap:butt;stroke-linejoin:miter;stroke:rgb(0%,0%,0%);stroke-opacity:1;stroke-miterlimit:10;" d="M 914.503856 174.369927 L 914.503856 45.332792 " transform="matrix(0.0987179,0,0,-0.0987179,1.038462,38.00641)"/>
<path style=" stroke:none;fill-rule:nonzero;fill:rgb(0%,0%,0%);fill-opacity:1;" d="M 118.339844 30.566406 L 175.421875 34.269531 L 175.421875 31.902344 L 118.339844 28.199219 L 118.339844 30.566406 "/>
<path style=" stroke:none;fill-rule:nonzero;fill:rgb(0%,0%,0%);fill-opacity:1;" d="M 123.96875 12.175781 C 122.695312 9.4375 117.230469 11.835938 118.429688 14.574219 C 119.628906 17.316406 125.09375 14.902344 123.894531 12.175781 "/>
<path style="fill:none;stroke-width:5.25;stroke-linecap:butt;stroke-linejoin:miter;stroke:rgb(0%,0%,0%);stroke-opacity:1;stroke-miterlimit:10;" d="M 1190.503247 241.836445 L 1190.503247 82.844968 " transform="matrix(0.0987179,0,0,-0.0987179,1.038462,38.00641)"/>
<path style="fill:none;stroke-width:6;stroke-linecap:butt;stroke-linejoin:miter;stroke:rgb(0%,0%,0%);stroke-opacity:1;stroke-miterlimit:10;" d="M 1362.988028 294.345576 L 1453.009334 294.345576 " transform="matrix(0.0987179,0,0,-0.0987179,1.038462,38.00641)"/>
<path style=" stroke:none;fill-rule:nonzero;fill:rgb(0%,0%,0%);fill-opacity:1;" d="M 142.847656 5.511719 C 141.574219 2.773438 136.109375 5.171875 137.308594 7.910156 C 138.507812 10.652344 143.972656 8.238281 142.773438 5.511719 "/>
<path style="fill:none;stroke-width:5.25;stroke-linecap:butt;stroke-linejoin:miter;stroke:rgb(0%,0%,0%);stroke-opacity:1;stroke-miterlimit:10;" d="M 1381.744115 309.342532 L 1381.744115 70.10349 " transform="matrix(0.0987179,0,0,-0.0987179,1.038462,38.00641)"/>
<path style=" stroke:none;fill-rule:nonzero;fill:rgb(0%,0%,0%);fill-opacity:1;" d="M 161.652344 9.957031 C 160.378906 7.214844 154.914062 9.613281 156.113281 12.355469 C 157.3125 15.09375 162.777344 12.679688 161.578125 9.957031 "/>
<path style="fill:none;stroke-width:5.25;stroke-linecap:butt;stroke-linejoin:miter;stroke:rgb(0%,0%,0%);stroke-opacity:1;stroke-miterlimit:10;" d="M 1572.233157 264.351664 L 1572.233157 58.113839 " transform="matrix(0.0987179,0,0,-0.0987179,1.038462,38.00641)"/>
<path style=" stroke:none;fill-rule:nonzero;fill:rgb(0%,0%,0%);fill-opacity:1;" d="M 180.53125 18.839844 C 179.257812 16.101562 173.792969 18.5 174.996094 21.238281 C 176.195312 23.976562 181.65625 21.566406 180.457031 18.839844 "/>
<path style="fill:none;stroke-width:5.25;stroke-linecap:butt;stroke-linejoin:miter;stroke:rgb(0%,0%,0%);stroke-opacity:1;stroke-miterlimit:10;" d="M 1763.513596 174.369927 L 1763.513596 45.332792 " transform="matrix(0.0987179,0,0,-0.0987179,1.038462,38.00641)"/>
</g>
</svg>
