<?xml version="1.0" encoding="UTF-8" standalone="no"?>
<svg
   xmlns:dc="http://purl.org/dc/elements/1.1/"
   xmlns:cc="http://creativecommons.org/ns#"
   xmlns:rdf="http://www.w3.org/1999/02/22-rdf-syntax-ns#"
   xmlns:svg="http://www.w3.org/2000/svg"
   xmlns="http://www.w3.org/2000/svg"
   xmlns:sodipodi="http://sodipodi.sourceforge.net/DTD/sodipodi-0.dtd"
   xmlns:inkscape="http://www.inkscape.org/namespaces/inkscape"
   width="246pt"
   height="33pt"
   viewBox="0 0 246 33"
   version="1.1"
   id="svg63"
   sodipodi:docname="out2.svg"
   inkscape:version="0.92.4 (33fec40, 2019-01-16)">
  <metadata
     id="metadata69">
    <rdf:RDF>
      <cc:Work
         rdf:about="">
        <dc:format>image/svg+xml</dc:format>
        <dc:type
           rdf:resource="http://purl.org/dc/dcmitype/StillImage" />
      </cc:Work>
    </rdf:RDF>
  </metadata>
  <defs
     id="defs67" />
  <sodipodi:namedview
     pagecolor="#ffffff"
     bordercolor="#666666"
     borderopacity="1"
     objecttolerance="10"
     gridtolerance="10"
     guidetolerance="10"
     inkscape:pageopacity="0"
     inkscape:pageshadow="2"
     inkscape:window-width="1853"
     inkscape:window-height="1025"
     id="namedview65"
     showgrid="false"
     inkscape:zoom="4.402439"
     inkscape:cx="164"
     inkscape:cy="22"
     inkscape:window-x="67"
     inkscape:window-y="27"
     inkscape:window-maximized="1"
     inkscape:current-layer="surface1" />
  <g
     id="surface1">
    <path
       style="fill:none;stroke-width:5.25;stroke-linecap:butt;stroke-linejoin:miter;stroke:rgb(0%,0%,0%);stroke-opacity:1;stroke-miterlimit:10;"
       d="M 822.265625 69.335938 L 822.265625 249.335938 "
       transform="matrix(0.1,0,0,-0.1,0,33)"
       id="path2" />
    <path
       style="fill:none;stroke-width:5.25;stroke-linecap:butt;stroke-linejoin:miter;stroke:rgb(0%,0%,0%);stroke-opacity:1;stroke-miterlimit:10;"
       d="M 2456.484375 69.335938 L 2456.484375 249.335938 "
       transform="matrix(0.1,0,0,-0.1,0,33)"
       id="path4" />
    <path
       style="fill:none;stroke-width:36.75;stroke-linecap:butt;stroke-linejoin:miter;stroke:rgb(0%, 0%, 0%);stroke-opacity:1;stroke-miterlimit:10;stroke-dasharray:none"
       d="M 3.984375 69.335938 L 2456.484375 69.335938 M 3.984375 114.335938 L 2456.484375 114.335938 M 3.984375 159.335938 L 2456.484375 159.335938 M 3.984375 204.335938 L 2456.484375 204.335938 M 3.984375 249.335938 L 2456.484375 249.335938 "
       transform="matrix(0.1,0,0,-0.1,0,33)"
       id="path6" />
    <path
       style=" stroke:none;fill-rule:nonzero;fill:rgb(0%,0%,0%);fill-opacity:1;"
       d="M 7.707031 23.164062 C 5.273438 21.777344 5.273438 17.832031 9.460938 16.816406 C 14.523438 16.480469 16.886719 23.164062 12.496094 25.457031 C 8.648438 27.210938 3.214844 25.457031 2.609375 20.867188 C 2.101562 14.757812 5.746094 13.140625 10.035156 9.59375 C 13.003906 6.660156 12.699219 5.105469 12.125 2.507812 C 10.40625 3.621094 8.953125 6.050781 9.121094 8.785156 C 9.695312 17.796875 10.335938 21.40625 10.777344 28.15625 C 10.980469 31.398438 10.136719 32.679688 8.175781 32.714844 C 5.476562 32.746094 3.925781 29.574219 6.117188 28.226562 C 8.988281 26.839844 10.605469 31.632812 7.164062 31.769531 C 7.941406 32.34375 10.269531 33.015625 10.203125 28.664062 C 9.863281 21.136719 8.886719 17.121094 8.515625 7.839844 C 8.515625 4.800781 8.515625 2.371094 11.753906 0.0117188 C 13.644531 2.441406 13.882812 7.773438 12.496094 9.765625 C 10 13.339844 3.824219 15.433594 3.890625 20.429688 C 4.195312 25.59375 8.886719 26.671875 12.394531 24.917969 C 15.296875 22.722656 13.375 18.4375 9.695312 18.976562 C 7.300781 19.382812 6.152344 21.238281 7.707031 23.164062 "
       id="path8" />
    <path
       style=" stroke:none;fill-rule:nonzero;fill:rgb(0%,0%,0%);fill-opacity:1;"
       d="M 19.484375 14.351562 L 19.917969 14.351562 L 19.917969 2.339844 L 19.484375 2.339844 Z M 21.644531 13.679688 L 22.078125 13.679688 L 22.078125 1.691406 L 21.644531 1.691406 Z M 18.515625 5.550781 L 18.515625 7.117188 L 23.078125 5.820312 L 23.078125 4.253906 Z M 18.515625 10.222656 L 18.515625 11.789062 L 23.078125 10.464844 L 23.078125 8.925781 "
       id="path10" />
    <path
       style=" stroke:none;fill-rule:nonzero;fill:rgb(0%,0%,0%);fill-opacity:1;"
       d="M 33.398438 13.089844 C 34.074219 13.089844 35.125 13.613281 35.199219 14.738281 C 34.300781 13.238281 32.5 14.816406 34 16.015625 C 35.5 16.765625 36.851562 13.390625 33.398438 12.488281 C 31.898438 12.191406 28.601562 13.464844 29.050781 17.738281 C 29.351562 22.539062 34.976562 22.839844 35.875 18.265625 C 34.148438 22.464844 30.851562 22.089844 30.773438 18.265625 C 30.398438 14.964844 31.300781 12.640625 33.398438 13.089844 "
       id="path12" />
    <path
       style="fill:none;stroke-width:5.25;stroke-linecap:butt;stroke-linejoin:miter;stroke:rgb(0%,0%,0%);stroke-opacity:1;stroke-miterlimit:10;"
       d="M 326.484375 99.335938 L 326.484375 219.335938 "
       transform="matrix(0.1,0,0,-0.1,0,33)"
       id="path14" />
    <path
       style=" stroke:none;fill-rule:nonzero;fill:rgb(0%,0%,0%);fill-opacity:1;"
       d="M 48.550781 2.289062 L 68.125 4.164062 L 68.125 6.566406 L 48.550781 4.691406 L 48.550781 2.289062 "
       id="path16" />
    <path
       style=" stroke:none;fill-rule:nonzero;fill:rgb(0%,0%,0%);fill-opacity:1;"
       d="M 49 15.835938 C 47.710938 13.058594 42.175781 15.488281 43.390625 18.265625 C 44.605469 21.039062 50.140625 18.59375 48.925781 15.835938 "
       id="path18" />
    <path
       style="fill:none;stroke-width:5.25;stroke-linecap:butt;stroke-linejoin:miter;stroke:rgb(0%,0%,0%);stroke-opacity:1;stroke-miterlimit:10;"
       d="M 487.734375 166.835938 L 487.734375 299.609375 "
       transform="matrix(0.1,0,0,-0.1,0,33)"
       id="path20" />
    <path
       style=" stroke:none;fill-rule:nonzero;fill:rgb(0%,0%,0%);fill-opacity:1;"
       d="M 68.125 18.085938 C 66.835938 15.308594 61.300781 17.738281 62.515625 20.515625 C 63.730469 23.289062 69.265625 20.84375 68.050781 18.085938 "
       id="path22" />
    <path
       style="fill:none;stroke-width:5.25;stroke-linecap:butt;stroke-linejoin:miter;stroke:rgb(0%,0%,0%);stroke-opacity:1;stroke-miterlimit:10;"
       d="M 678.984375 144.335938 L 678.984375 281.601562 "
       transform="matrix(0.1,0,0,-0.1,0,33)"
       id="path24" />
    <path
       style=" stroke:none;fill-rule:nonzero;fill:rgb(0%,0%,0%);fill-opacity:1;"
       d="M 95.199219 5.890625 L 153.023438 0.414062 L 153.023438 2.816406 L 95.199219 8.289062 L 95.199219 5.890625 "
       id="path26" />
    <path
       style=" stroke:none;fill-rule:nonzero;fill:rgb(0%,0%,0%);fill-opacity:1;"
       d="M 95.726562 20.335938 C 94.433594 17.558594 88.898438 19.988281 90.113281 22.765625 C 91.332031 25.539062 96.863281 23.09375 95.648438 20.335938 "
       id="path28" />
    <path
       style="fill:none;stroke-width:5.25;stroke-linecap:butt;stroke-linejoin:miter;stroke:rgb(0%,0%,0%);stroke-opacity:1;stroke-miterlimit:10;"
       d="M 955 121.835938 L 955 263.59375 "
       transform="matrix(0.1,0,0,-0.1,0,33)"
       id="path30" />
    <path
       style=" stroke:none;fill-rule:nonzero;fill:rgb(0%,0%,0%);fill-opacity:1;"
       d="M 114.773438 18.085938 C 113.484375 15.308594 107.949219 17.738281 109.164062 20.515625 C 110.378906 23.289062 115.914062 20.84375 114.699219 18.085938 "
       id="path32" />
    <path
       style="fill:none;stroke-width:5.25;stroke-linecap:butt;stroke-linejoin:miter;stroke:rgb(0%,0%,0%);stroke-opacity:1;stroke-miterlimit:10;"
       d="M 1145.507812 144.335938 L 1145.507812 281.601562 "
       transform="matrix(0.1,0,0,-0.1,0,33)"
       id="path34" />
    <path
       style=" stroke:none;fill-rule:nonzero;fill:rgb(0%,0%,0%);fill-opacity:1;"
       d="M 133.898438 15.835938 C 132.609375 13.058594 127.074219 15.488281 128.289062 18.265625 C 129.503906 21.039062 135.039062 18.59375 133.824219 15.835938 "
       id="path36" />
    <path
       style="fill:none;stroke-width:5.25;stroke-linecap:butt;stroke-linejoin:miter;stroke:rgb(0%,0%,0%);stroke-opacity:1;stroke-miterlimit:10;"
       d="M 1336.757812 166.835938 L 1336.757812 300.351562 "
       transform="matrix(0.1,0,0,-0.1,0,33)"
       id="path38" />
    <path
       style=" stroke:none;fill-rule:nonzero;fill:rgb(0%,0%,0%);fill-opacity:1;"
       d="M 153.023438 13.585938 C 151.734375 10.808594 146.199219 13.238281 147.414062 16.015625 C 148.628906 18.789062 154.164062 16.34375 152.949219 13.585938 "
       id="path40" />
    <path
       style="fill:none;stroke-width:5.25;stroke-linecap:butt;stroke-linejoin:miter;stroke:rgb(0%,0%,0%);stroke-opacity:1;stroke-miterlimit:10;"
       d="M 1528.007812 189.335938 L 1528.007812 318.359375 "
       transform="matrix(0.1,0,0,-0.1,0,33)"
       id="path42" />
    <path
       style=" stroke:none;fill-rule:nonzero;fill:rgb(0%,0%,0%);fill-opacity:1;"
       d="M 168.476562 31.464844 L 226.300781 31.464844 L 226.300781 29.066406 L 168.476562 29.066406 Z M 168.476562 31.464844 "
       id="path44" />
    <path
       style=" stroke:none;fill-rule:nonzero;fill:rgb(0%,0%,0%);fill-opacity:1;"
       d="M 174.25 11.335938 C 172.960938 8.558594 167.425781 10.988281 168.640625 13.765625 C 169.855469 16.539062 175.390625 14.09375 174.175781 11.335938 "
       id="path46" />
    <path
       style="fill:none;stroke-width:5.25;stroke-linecap:butt;stroke-linejoin:miter;stroke:rgb(0%,0%,0%);stroke-opacity:1;stroke-miterlimit:10;"
       d="M 1687.734375 196.835938 L 1687.734375 22.851562 "
       transform="matrix(0.1,0,0,-0.1,0,33)"
       id="path48" />
    <path
       style=" stroke:none;fill-rule:nonzero;fill:rgb(0%,0%,0%);fill-opacity:1;"
       d="M 193.300781 15.835938 C 192.011719 13.058594 186.476562 15.488281 187.691406 18.265625 C 188.90625 21.039062 194.441406 18.59375 193.226562 15.835938 "
       id="path50" />
    <path
       style="fill:none;stroke-width:5.25;stroke-linecap:butt;stroke-linejoin:miter;stroke:rgb(0%,0%,0%);stroke-opacity:1;stroke-miterlimit:10;"
       d="M 1878.242188 151.835938 L 1878.242188 22.851562 "
       transform="matrix(0.1,0,0,-0.1,0,33)"
       id="path52" />
    <path
       style=" stroke:none;fill-rule:nonzero;fill:rgb(0%,0%,0%);fill-opacity:1;"
       d="M 212.425781 11.335938 C 211.136719 8.558594 205.601562 10.988281 206.816406 13.765625 C 208.03125 16.539062 213.566406 14.09375 212.351562 11.335938 "
       id="path54" />
    <path
       style="fill:none;stroke-width:5.25;stroke-linecap:butt;stroke-linejoin:miter;stroke:rgb(0%,0%,0%);stroke-opacity:1;stroke-miterlimit:10;"
       d="M 2069.492188 196.835938 L 2069.492188 22.851562 "
       transform="matrix(0.1,0,0,-0.1,0,33)"
       id="path56" />
    <path
       style=" stroke:none;fill-rule:nonzero;fill:rgb(0%,0%,0%);fill-opacity:1;"
       d="M 231.550781 9.085938 C 230.261719 6.308594 224.726562 8.738281 225.941406 11.515625 C 227.15625 14.289062 232.691406 11.84375 231.476562 9.085938 "
       id="path58" />
    <path
       style="fill:none;stroke-width:5.25;stroke-linecap:butt;stroke-linejoin:miter;stroke:rgb(0%,0%,0%);stroke-opacity:1;stroke-miterlimit:10;"
       d="M 2260.742188 219.335938 L 2260.742188 22.851562 "
       transform="matrix(0.1,0,0,-0.1,0,33)"
       id="path60" />
  </g>
</svg>
