<?xml version="1.0" encoding="UTF-8"?>
<svg xmlns="http://www.w3.org/2000/svg" xmlns:xlink="http://www.w3.org/1999/xlink" width="219.5pt" height="33pt" viewBox="0 0 219.5 33" version="1.1">
<defs>
<clipPath id="clip1">
  <path d="M 2 0.0390625 L 15 0.0390625 L 15 32.960938 L 2 32.960938 Z M 2 0.0390625 "/>
</clipPath>
</defs>
<g id="surface1">
<path style="fill:none;stroke-width:5.25;stroke-linecap:butt;stroke-linejoin:miter;stroke:rgb(0%,0%,0%);stroke-opacity:1;stroke-miterlimit:10;" d="M 638.482521 69.352952 L 638.482521 249.371509 " transform="matrix(0.0997727,0,0,-0.0997727,0,32.9625)"/>
<path style="fill:none;stroke-width:5.25;stroke-linecap:butt;stroke-linejoin:miter;stroke:rgb(0%,0%,0%);stroke-opacity:1;stroke-miterlimit:10;" d="M 2190.995758 69.352952 L 2190.995758 249.371509 " transform="matrix(0.0997727,0,0,-0.0997727,0,32.9625)"/>
<path style="fill:none;stroke-width:5.25;stroke-linecap:butt;stroke-linejoin:miter;stroke:rgb(0%,0%,0%);stroke-opacity:1;stroke-miterlimit:10;" d="M 2168.483651 69.352952 L 2168.483651 249.371509 " transform="matrix(0.0997727,0,0,-0.0997727,0,32.9625)"/>
<path style="fill:none;stroke-width:5.25;stroke-linecap:butt;stroke-linejoin:miter;stroke:rgb(0%,0%,0%);stroke-opacity:1;stroke-miterlimit:10;" d="M 3.993452 69.352952 L 2190.995758 69.352952 M 3.993452 114.338015 L 2190.995758 114.338015 M 3.993452 159.36223 L 2190.995758 159.36223 M 3.993452 204.347294 L 2190.995758 204.347294 M 3.993452 249.371509 L 2190.995758 249.371509 " transform="matrix(0.0997727,0,0,-0.0997727,0,32.9625)"/>
<g clip-path="url(#clip1)" clip-rule="nonzero">
<path style=" stroke:none;fill-rule:nonzero;fill:rgb(0%,0%,0%);fill-opacity:1;" d="M 7.6875 23.148438 C 5.261719 21.765625 5.261719 17.828125 9.4375 16.816406 C 14.488281 16.480469 16.847656 23.148438 12.46875 25.4375 C 8.628906 27.1875 3.210938 25.4375 2.601562 20.859375 C 2.097656 14.761719 5.734375 13.144531 10.011719 9.609375 C 12.972656 6.679688 12.671875 5.132812 12.097656 2.539062 C 10.382812 3.648438 8.933594 6.074219 9.101562 8.800781 C 9.675781 17.792969 10.3125 21.394531 10.75 28.132812 C 10.953125 31.363281 10.113281 32.644531 8.160156 32.675781 C 5.464844 32.710938 3.917969 29.546875 6.105469 28.199219 C 8.96875 26.816406 10.582031 31.597656 7.148438 31.734375 C 7.921875 32.304688 10.246094 32.980469 10.179688 28.636719 C 9.84375 21.128906 8.867188 17.121094 8.496094 7.859375 C 8.496094 4.828125 8.496094 2.40625 11.726562 0.046875 C 13.613281 2.472656 13.851562 7.792969 12.46875 9.777344 C 9.976562 13.347656 3.816406 15.4375 3.882812 20.421875 C 4.183594 25.570312 8.867188 26.648438 12.367188 24.898438 C 15.265625 22.710938 13.34375 18.433594 9.675781 18.972656 C 7.285156 19.375 6.136719 21.226562 7.6875 23.148438 "/>
</g>
<path style=" stroke:none;fill-rule:nonzero;fill:rgb(0%,0%,0%);fill-opacity:1;" d="M 24.867188 22.824219 L 44.472656 20.953125 L 44.472656 18.558594 L 24.867188 20.429688 L 24.867188 22.824219 "/>
<path style=" stroke:none;fill-rule:nonzero;fill:rgb(0%,0%,0%);fill-opacity:1;" d="M 30.554688 6.855469 C 29.269531 4.089844 23.746094 6.511719 24.957031 9.28125 C 26.171875 12.050781 31.691406 9.609375 30.480469 6.855469 "/>
<path style="fill:none;stroke-width:5.25;stroke-linecap:butt;stroke-linejoin:miter;stroke:rgb(0%,0%,0%);stroke-opacity:1;stroke-miterlimit:10;" d="M 251.50918 241.854423 L 251.50918 109.091715 " transform="matrix(0.0997727,0,0,-0.0997727,0,32.9625)"/>
<path style=" stroke:none;fill-rule:nonzero;fill:rgb(0%,0%,0%);fill-opacity:1;" d="M 49.636719 4.613281 C 48.351562 1.84375 42.828125 4.269531 44.039062 7.035156 C 45.253906 9.804688 50.773438 7.367188 49.5625 4.613281 "/>
<path style="fill:none;stroke-width:5.25;stroke-linecap:butt;stroke-linejoin:miter;stroke:rgb(0%,0%,0%);stroke-opacity:1;stroke-miterlimit:10;" d="M 442.764216 264.36653 L 442.764216 127.101401 " transform="matrix(0.0997727,0,0,-0.0997727,0,32.9625)"/>
<path style=" stroke:none;fill-rule:nonzero;fill:rgb(0%,0%,0%);fill-opacity:1;" d="M 71.414062 23.648438 L 129.105469 29.261719 L 129.105469 26.867188 L 71.414062 21.253906 L 71.414062 23.648438 "/>
<path style="fill:none;stroke-width:6;stroke-linecap:butt;stroke-linejoin:miter;stroke:rgb(0%,0%,0%);stroke-opacity:1;stroke-miterlimit:10;" d="M 699.989514 294.356572 L 789.998792 294.356572 " transform="matrix(0.0997727,0,0,-0.0997727,0,32.9625)"/>
<path style=" stroke:none;fill-rule:nonzero;fill:rgb(0%,0%,0%);fill-opacity:1;" d="M 77.175781 2.367188 C 75.886719 -0.402344 70.363281 2.023438 71.578125 4.792969 C 72.789062 7.558594 78.3125 5.121094 77.097656 2.367188 "/>
<path style="fill:none;stroke-width:5.25;stroke-linecap:butt;stroke-linejoin:miter;stroke:rgb(0%,0%,0%);stroke-opacity:1;stroke-miterlimit:10;" d="M 718.743078 286.839486 L 718.743078 100.869902 " transform="matrix(0.0997727,0,0,-0.0997727,0,32.9625)"/>
<path style=" stroke:none;fill-rule:nonzero;fill:rgb(0%,0%,0%);fill-opacity:1;" d="M 96.179688 6.855469 C 94.894531 4.089844 89.371094 6.511719 90.582031 9.28125 C 91.796875 12.050781 97.316406 9.609375 96.105469 6.855469 "/>
<path style="fill:none;stroke-width:5.25;stroke-linecap:butt;stroke-linejoin:miter;stroke:rgb(0%,0%,0%);stroke-opacity:1;stroke-miterlimit:10;" d="M 909.254235 241.854423 L 909.254235 82.116338 " transform="matrix(0.0997727,0,0,-0.0997727,0,32.9625)"/>
<path style=" stroke:none;fill-rule:nonzero;fill:rgb(0%,0%,0%);fill-opacity:1;" d="M 115.261719 11.347656 C 113.976562 8.578125 108.453125 11.003906 109.664062 13.769531 C 110.878906 16.539062 116.398438 14.101562 115.1875 11.347656 "/>
<path style="fill:none;stroke-width:5.25;stroke-linecap:butt;stroke-linejoin:miter;stroke:rgb(0%,0%,0%);stroke-opacity:1;stroke-miterlimit:10;" d="M 1100.50927 196.869359 L 1100.50927 64.106652 " transform="matrix(0.0997727,0,0,-0.0997727,0,32.9625)"/>
<path style=" stroke:none;fill-rule:nonzero;fill:rgb(0%,0%,0%);fill-opacity:1;" d="M 134.34375 13.59375 C 133.058594 10.824219 127.535156 13.246094 128.746094 16.015625 C 129.957031 18.785156 135.480469 16.34375 134.269531 13.59375 "/>
<path style=" stroke:none;fill-rule:nonzero;fill:rgb(0%,0%,0%);fill-opacity:1;" d="M 123.605469 21.09375 L 124.035156 21.09375 L 124.035156 9.105469 L 123.605469 9.105469 Z M 125.757812 20.417969 L 126.191406 20.417969 L 126.191406 8.457031 L 125.757812 8.457031 Z M 122.632812 12.3125 L 122.632812 13.875 L 127.1875 12.578125 L 127.1875 11.019531 Z M 122.632812 16.972656 L 122.632812 18.535156 L 127.1875 17.214844 L 127.1875 15.679688 "/>
<path style="fill:none;stroke-width:5.25;stroke-linecap:butt;stroke-linejoin:miter;stroke:rgb(0%,0%,0%);stroke-opacity:1;stroke-miterlimit:10;" d="M 1291.764305 174.357252 L 1291.764305 45.353088 " transform="matrix(0.0997727,0,0,-0.0997727,0,32.9625)"/>
<path style=" stroke:none;fill-rule:nonzero;fill:rgb(0%,0%,0%);fill-opacity:1;" d="M 155.519531 11.347656 C 154.234375 8.578125 148.710938 11.003906 149.921875 13.769531 C 151.136719 16.539062 156.65625 14.101562 155.445312 11.347656 "/>
<path style="fill:none;stroke-width:5.25;stroke-linecap:butt;stroke-linejoin:miter;stroke:rgb(0%,0%,0%);stroke-opacity:1;stroke-miterlimit:10;" d="M 1504.00454 196.869359 L 1504.00454 54.357931 " transform="matrix(0.0997727,0,0,-0.0997727,0,32.9625)"/>
<path style=" stroke:none;fill-rule:nonzero;fill:rgb(0%,0%,0%);fill-opacity:1;" d="M 179.691406 20.582031 L 199.222656 18.710938 L 199.222656 16.316406 L 179.691406 18.1875 L 179.691406 20.582031 "/>
<path style=" stroke:none;fill-rule:nonzero;fill:rgb(0%,0%,0%);fill-opacity:1;" d="M 185.453125 4.613281 C 184.164062 1.84375 178.644531 4.269531 179.855469 7.035156 C 181.066406 9.804688 186.589844 7.367188 185.378906 4.613281 "/>
<path style="fill:none;stroke-width:5.25;stroke-linecap:butt;stroke-linejoin:miter;stroke:rgb(0%,0%,0%);stroke-opacity:1;stroke-miterlimit:10;" d="M 1803.983266 264.36653 L 1803.983266 131.603823 " transform="matrix(0.0997727,0,0,-0.0997727,0,32.9625)"/>
<path style="fill:none;stroke-width:6;stroke-linecap:butt;stroke-linejoin:miter;stroke:rgb(0%,0%,0%);stroke-opacity:1;stroke-miterlimit:10;" d="M 1975.740859 294.356572 L 2065.750138 294.356572 " transform="matrix(0.0997727,0,0,-0.0997727,0,32.9625)"/>
<path style=" stroke:none;fill-rule:nonzero;fill:rgb(0%,0%,0%);fill-opacity:1;" d="M 204.460938 2.367188 C 203.171875 -0.402344 197.648438 2.023438 198.863281 4.792969 C 200.074219 7.558594 205.597656 5.121094 204.382812 2.367188 "/>
<path style="fill:none;stroke-width:5.25;stroke-linecap:butt;stroke-linejoin:miter;stroke:rgb(0%,0%,0%);stroke-opacity:1;stroke-miterlimit:10;" d="M 1994.494423 286.839486 L 1994.494423 149.613509 " transform="matrix(0.0997727,0,0,-0.0997727,0,32.9625)"/>
</g>
</svg>
