<svg id="svg" version="1.1" xmlns="http://www.w3.org/2000/svg" xmlns:xlink="http://www.w3.org/1999/xlink" width="400" height="397.1875" viewBox="0, 0, 400,397.1875"><g id="svgg"><path id="path0" d="M297.239 18.311 C 296.396 18.903,296.399 19.029,297.447 26.552 C 297.794 29.039,297.986 31.219,297.874 31.396 C 297.595 31.839,297.763 39.154,298.141 42.969 C 298.511 46.704,298.707 53.139,298.798 64.477 C 298.864 72.756,298.975 74.317,299.850 79.219 C 300.383 82.206,300.550 84.004,300.980 91.406 C 301.160 94.500,301.348 97.734,301.398 98.594 C 301.500 100.338,302.315 109.644,302.807 114.688 C 302.984 116.492,303.272 118.602,303.447 119.375 C 303.623 120.148,303.837 122.178,303.923 123.885 C 304.010 125.592,304.198 127.139,304.341 127.323 C 304.485 127.506,304.684 129.068,304.784 130.794 C 304.884 132.520,305.098 134.280,305.260 134.705 C 305.421 135.129,305.635 137.092,305.734 139.067 C 305.934 143.034,306.494 148.912,306.753 149.771 C 306.845 150.074,307.111 152.043,307.345 154.146 C 307.746 157.757,308.386 161.961,309.069 165.469 C 309.236 166.328,309.647 168.438,309.983 170.156 C 310.318 171.875,310.884 175.073,311.240 177.263 C 311.597 179.453,312.035 181.629,312.213 182.099 C 312.392 182.569,312.732 183.875,312.969 185.000 C 313.205 186.125,313.554 187.454,313.744 187.953 C 314.188 189.120,315.179 192.918,315.462 194.531 C 315.582 195.219,315.790 195.922,315.922 196.094 C 316.055 196.266,316.248 197.053,316.351 197.843 C 316.453 198.632,316.912 200.531,317.371 202.061 C 317.829 203.592,318.381 205.477,318.598 206.250 C 318.814 207.023,319.346 208.430,319.780 209.375 C 320.921 211.861,323.929 219.318,324.382 220.781 C 324.595 221.469,324.867 222.172,324.987 222.344 C 325.107 222.516,325.464 223.359,325.780 224.219 C 326.097 225.078,326.824 226.785,327.397 228.011 C 327.969 229.237,328.438 230.330,328.438 230.439 C 328.438 230.548,328.789 231.195,329.219 231.876 C 329.649 232.557,331.073 235.246,332.384 237.851 C 333.694 240.457,335.104 243.085,335.516 243.693 C 335.928 244.301,336.355 245.160,336.464 245.602 C 336.573 246.044,336.961 246.898,337.327 247.500 C 337.692 248.102,338.538 249.789,339.206 251.250 C 339.875 252.711,340.749 254.304,341.149 254.790 C 341.548 255.275,341.875 255.870,341.875 256.112 C 341.875 256.706,343.333 257.038,343.895 256.572 C 344.145 256.365,344.639 256.292,345.005 256.408 C 345.528 256.574,346.027 256.256,347.406 254.877 C 349.480 252.802,349.516 252.036,347.663 249.343 C 347.039 248.435,346.031 246.630,345.422 245.331 C 343.566 241.367,342.441 239.250,341.833 238.575 C 341.514 238.221,341.019 237.246,340.734 236.409 C 340.449 235.572,339.804 234.277,339.300 233.532 C 338.231 231.948,334.456 224.841,334.192 223.915 C 334.093 223.566,333.681 222.578,333.278 221.719 C 332.874 220.859,332.169 219.172,331.711 217.969 C 331.253 216.766,330.708 215.500,330.500 215.156 C 330.291 214.813,329.940 213.898,329.718 213.125 C 329.299 211.661,329.104 211.177,327.576 207.813 C 327.068 206.695,326.268 204.516,325.798 202.969 C 325.327 201.422,324.828 199.805,324.690 199.375 C 324.551 198.945,324.132 197.398,323.757 195.938 C 323.383 194.477,322.877 192.578,322.633 191.719 C 322.388 190.859,322.049 189.523,321.879 188.750 C 321.709 187.977,321.063 185.445,320.443 183.125 C 319.081 178.025,318.466 174.971,318.450 173.222 C 318.443 172.501,318.313 171.835,318.161 171.741 C 317.839 171.542,317.602 170.431,317.193 167.188 C 316.759 163.753,316.596 162.805,316.256 161.739 C 316.087 161.212,315.664 158.461,315.315 155.625 C 314.965 152.789,314.396 148.359,314.048 145.781 C 313.419 141.108,312.808 135.233,312.796 133.750 C 312.792 133.320,312.498 131.387,312.142 129.454 C 311.786 127.521,311.586 125.703,311.696 125.415 C 311.924 124.821,311.389 120.962,310.743 118.546 C 310.506 117.660,310.307 115.691,310.301 114.171 C 310.295 112.650,310.082 110.563,309.829 109.531 C 309.547 108.390,309.301 105.334,309.199 101.719 C 309.014 95.157,309.004 95.029,308.618 94.409 C 308.469 94.171,308.308 91.991,308.261 89.566 C 308.158 84.292,307.849 80.273,307.515 79.844 C 307.381 79.672,307.179 78.617,307.066 77.500 C 306.954 76.383,306.786 74.977,306.695 74.375 C 306.539 73.350,306.012 56.726,305.972 51.563 C 305.962 50.273,305.759 46.266,305.520 42.656 C 305.280 39.047,305.062 34.125,305.034 31.719 C 304.968 26.031,304.355 20.920,303.591 19.684 C 302.855 18.493,298.363 17.522,297.239 18.311 M291.094 18.955 C 289.614 19.073,287.129 19.536,284.531 20.177 C 283.001 20.554,274.283 21.750,268.594 22.362 C 267.906 22.436,266.148 22.623,264.688 22.776 C 261.268 23.137,241.408 22.948,237.396 22.517 C 235.492 22.312,233.351 22.288,231.771 22.453 C 229.746 22.664,215.189 22.633,204.063 22.395 C 202.085 22.352,196.138 23.070,195.041 23.484 C 194.634 23.637,192.805 23.841,190.978 23.936 C 186.115 24.190,179.663 24.641,176.094 24.977 C 174.375 25.139,170.578 25.488,167.656 25.752 C 164.734 26.016,161.570 26.309,160.625 26.403 C 159.680 26.497,157.852 26.676,156.563 26.802 C 155.273 26.928,154.050 27.141,153.843 27.275 C 153.636 27.409,152.933 27.581,152.280 27.657 C 147.627 28.198,145.620 28.474,144.531 28.722 C 143.844 28.878,142.297 29.231,141.094 29.505 C 139.891 29.779,138.344 30.154,137.656 30.338 C 136.969 30.522,135.844 30.788,135.156 30.929 C 134.469 31.071,133.414 31.351,132.813 31.552 C 131.521 31.983,126.823 32.993,124.015 33.443 C 122.924 33.618,121.680 33.826,121.250 33.905 C 120.820 33.984,119.484 34.129,118.281 34.227 C 114.493 34.534,113.321 34.677,111.875 35.008 C 109.194 35.622,102.307 36.529,98.750 36.736 C 97.289 36.821,95.854 36.965,95.560 37.056 C 95.267 37.147,93.509 37.358,91.654 37.526 C 80.300 38.550,76.609 38.957,74.688 39.394 C 73.914 39.570,72.156 39.910,70.781 40.149 C 67.025 40.802,63.484 41.536,61.563 42.061 C 60.617 42.319,59.281 42.678,58.594 42.860 C 57.906 43.041,56.766 43.390,56.059 43.635 C 55.352 43.881,53.946 44.230,52.934 44.412 C 51.922 44.594,50.391 44.871,49.531 45.027 C 48.672 45.184,46.773 45.456,45.313 45.632 C 43.852 45.808,41.672 46.098,40.469 46.276 C 38.152 46.618,35.358 46.941,30.000 47.484 C 28.084 47.679,24.618 47.732,21.670 47.613 C 17.379 47.439,16.429 47.486,15.334 47.924 C 14.266 48.351,13.610 48.391,11.504 48.155 C 10.106 47.999,8.809 47.916,8.622 47.972 C 8.434 48.027,7.909 48.154,7.453 48.253 C 6.166 48.534,5.937 49.737,5.937 56.227 C 5.937 59.428,5.806 63.169,5.644 64.539 C 5.129 68.916,4.964 78.425,5.308 83.906 C 5.491 86.828,5.772 93.016,5.934 97.656 C 6.186 104.910,6.361 108.229,7.024 118.281 C 7.081 119.141,7.217 121.225,7.327 122.913 C 7.601 127.114,8.351 134.165,8.746 136.250 C 8.925 137.195,9.131 139.094,9.203 140.469 C 9.617 148.336,10.347 160.075,10.641 163.594 C 11.132 169.464,11.173 169.840,11.688 173.281 C 11.946 175.000,12.247 177.883,12.358 179.688 C 12.469 181.492,12.685 183.466,12.837 184.074 C 12.989 184.682,13.325 187.494,13.585 190.324 C 13.844 193.154,14.137 195.891,14.237 196.406 C 14.336 196.922,14.540 198.469,14.690 199.844 C 15.091 203.510,15.566 206.742,16.068 209.219 C 16.836 213.006,17.467 216.898,17.968 220.938 C 18.234 223.086,18.588 225.547,18.754 226.406 C 19.684 231.217,19.806 234.542,19.850 256.250 C 19.902 281.995,19.993 283.470,21.997 290.938 C 22.918 294.368,23.750 299.327,23.750 301.379 C 23.750 302.534,23.904 303.766,24.092 304.117 C 24.285 304.479,24.478 307.004,24.537 309.956 C 24.594 312.816,24.802 316.000,24.999 317.031 C 25.196 318.063,25.554 320.664,25.795 322.813 C 26.447 328.644,26.890 330.789,28.051 333.750 C 28.220 334.180,28.533 335.094,28.748 335.781 C 29.194 337.205,29.895 338.125,30.534 338.125 C 30.775 338.125,31.962 338.977,33.172 340.019 C 35.786 342.269,36.053 342.385,40.403 343.149 C 42.257 343.475,44.015 343.864,44.309 344.015 C 44.603 344.166,45.406 344.380,46.094 344.490 C 46.781 344.600,48.539 344.907,50.000 345.173 C 52.604 345.645,56.913 346.093,62.179 346.438 C 63.635 346.533,64.971 346.702,65.147 346.813 C 65.720 347.172,83.172 347.319,94.844 347.062 C 98.453 346.982,105.669 346.846,110.879 346.759 C 119.661 346.613,124.042 346.322,127.969 345.625 C 128.828 345.473,131.570 345.113,134.063 344.824 C 142.660 343.831,144.407 343.562,149.063 342.514 C 149.836 342.340,151.805 341.917,153.438 341.575 C 159.741 340.252,162.342 339.637,162.649 339.394 C 162.825 339.256,164.094 338.910,165.469 338.625 C 166.844 338.340,168.883 337.831,170.000 337.495 C 171.117 337.159,172.988 336.596,174.157 336.245 C 175.326 335.894,176.591 335.644,176.969 335.690 C 177.347 335.735,178.711 335.533,180.000 335.241 C 181.482 334.905,184.182 334.665,187.344 334.589 C 190.659 334.509,192.923 334.300,194.063 333.970 C 195.008 333.697,196.836 333.309,198.125 333.108 C 199.414 332.908,201.453 332.557,202.656 332.329 C 203.859 332.101,205.946 331.840,207.292 331.749 C 208.639 331.658,210.538 331.442,211.511 331.268 C 212.485 331.095,214.969 330.735,217.031 330.469 C 219.094 330.202,221.914 329.771,223.297 329.511 C 224.681 329.251,226.791 328.908,227.985 328.749 C 229.179 328.590,230.930 328.316,231.875 328.140 C 232.820 327.964,234.784 327.740,236.239 327.643 C 237.814 327.537,239.331 327.241,239.989 326.912 C 243.698 325.057,244.659 324.687,245.764 324.688 C 246.437 324.688,247.419 324.555,247.947 324.392 C 248.474 324.230,249.961 323.941,251.250 323.750 C 254.597 323.254,256.920 322.797,257.750 322.470 C 258.145 322.314,259.831 322.035,261.496 321.849 C 265.028 321.455,269.624 320.536,270.557 320.036 C 270.916 319.844,271.543 319.687,271.951 319.687 C 272.359 319.688,272.966 319.481,273.300 319.229 C 273.633 318.976,274.156 318.765,274.460 318.760 C 274.990 318.750,277.275 317.890,282.031 315.909 C 283.234 315.408,284.467 314.999,284.770 314.999 C 285.073 315.000,285.565 314.862,285.864 314.694 C 286.766 314.185,292.287 311.931,293.149 311.720 C 293.832 311.552,294.129 311.735,295.107 312.929 C 295.741 313.703,296.574 314.436,296.958 314.557 C 297.342 314.679,298.181 315.110,298.823 315.515 C 300.545 316.602,303.447 316.926,306.290 316.349 C 309.959 315.605,312.933 314.876,314.219 314.406 C 317.003 313.389,322.289 311.782,324.063 311.415 C 325.180 311.183,326.711 310.764,327.466 310.483 C 328.720 310.017,331.341 309.413,335.000 308.748 C 335.773 308.607,337.039 308.281,337.813 308.023 C 338.586 307.765,340.484 307.254,342.031 306.887 C 343.578 306.519,345.969 305.945,347.344 305.610 C 348.719 305.276,351.951 304.495,354.526 303.875 C 363.532 301.707,372.413 297.749,375.038 294.732 C 378.104 291.211,378.710 289.899,378.112 288.087 C 377.591 286.506,377.359 286.378,376.488 287.192 C 375.664 287.964,371.687 290.625,371.359 290.625 C 371.035 290.625,368.365 291.907,367.813 292.328 C 367.307 292.713,363.810 294.200,360.781 295.319 C 359.750 295.699,358.660 296.137,358.358 296.290 C 358.057 296.444,356.651 296.855,355.233 297.204 C 353.816 297.553,351.250 298.189,349.531 298.617 C 347.813 299.045,345.773 299.513,345.000 299.657 C 344.227 299.800,342.459 300.220,341.072 300.590 C 338.054 301.395,333.687 302.183,333.359 301.982 C 332.655 301.550,333.167 301.226,339.844 297.882 C 342.422 296.591,345.425 294.992,346.516 294.330 C 347.608 293.667,348.560 293.125,348.632 293.125 C 348.704 293.125,349.319 292.773,350.000 292.344 C 350.681 291.914,351.401 291.562,351.601 291.562 C 352.554 291.563,359.090 286.824,360.375 285.202 C 361.025 284.381,361.746 280.589,361.403 279.795 C 361.266 279.478,361.184 278.973,361.222 278.672 C 361.317 277.899,360.545 277.993,359.737 278.853 C 359.361 279.254,358.423 279.896,357.652 280.281 C 356.881 280.666,356.250 281.081,356.250 281.203 C 356.250 281.326,355.863 281.587,355.391 281.785 C 354.441 282.181,352.744 283.173,352.500 283.474 C 352.414 283.579,351.500 284.045,350.469 284.508 C 349.438 284.972,348.383 285.483,348.125 285.645 C 347.867 285.807,347.305 286.079,346.875 286.251 C 346.445 286.422,345.883 286.704,345.625 286.877 C 345.367 287.050,344.805 287.344,344.375 287.531 C 343.945 287.717,342.736 288.279,341.687 288.779 C 339.001 290.059,338.380 289.878,340.549 288.447 C 341.192 288.023,342.141 287.350,342.656 286.951 C 343.172 286.552,344.528 285.609,345.670 284.856 C 348.047 283.289,350.907 280.563,350.365 280.382 C 350.164 280.315,350.000 280.114,350.000 279.936 C 350.000 279.738,350.183 279.762,350.465 279.997 C 351.296 280.686,353.253 278.410,353.027 277.018 C 352.878 276.102,351.365 274.062,350.833 274.062 C 350.562 274.063,346.176 276.592,342.908 278.634 C 341.155 279.729,339.629 280.625,339.515 280.625 C 339.402 280.625,338.684 281.047,337.920 281.562 C 337.156 282.078,336.451 282.500,336.354 282.500 C 336.256 282.500,335.697 282.921,335.111 283.436 C 334.525 283.950,333.469 284.665,332.765 285.024 C 332.061 285.383,330.919 286.087,330.227 286.589 C 329.535 287.090,328.801 287.500,328.595 287.500 C 328.390 287.500,327.954 287.797,327.627 288.161 C 327.054 288.796,326.602 289.036,325.078 289.511 C 323.480 290.008,325.136 287.661,327.138 286.589 C 327.509 286.390,327.813 286.073,327.813 285.883 C 327.812 285.509,328.305 285.069,330.000 283.928 C 330.602 283.523,331.375 282.924,331.719 282.596 C 332.063 282.268,332.941 281.665,333.672 281.255 C 334.402 280.845,335.000 280.405,335.000 280.277 C 335.000 280.149,335.897 279.144,336.993 278.042 C 338.089 276.940,339.163 275.709,339.379 275.305 C 339.595 274.901,339.902 274.421,340.060 274.238 C 340.941 273.222,343.750 269.235,343.750 269.001 C 343.750 268.849,344.052 268.317,344.420 267.818 C 344.976 267.067,345.036 266.760,344.769 266.034 C 344.592 265.551,344.439 264.824,344.428 264.418 C 344.405 263.564,343.549 262.500,342.884 262.500 C 341.967 262.500,339.104 264.946,334.063 270.036 C 331.227 272.899,327.641 276.248,326.094 277.477 C 324.547 278.706,322.600 280.304,321.768 281.028 C 320.936 281.752,320.092 282.399,319.893 282.466 C 319.694 282.533,318.875 283.166,318.074 283.872 C 317.273 284.578,315.806 285.789,314.815 286.563 C 313.824 287.336,311.737 289.247,310.178 290.810 C 308.619 292.373,306.500 294.232,305.469 294.943 C 304.438 295.653,303.031 296.656,302.344 297.172 C 301.656 297.688,300.531 298.485,299.844 298.944 C 299.156 299.403,298.132 300.180,297.567 300.671 C 297.003 301.161,296.366 301.563,296.152 301.563 C 295.939 301.563,295.416 301.809,294.991 302.109 C 294.216 302.658,293.934 302.781,290.469 304.077 C 289.438 304.462,288.316 304.968,287.977 305.201 C 287.638 305.434,287.144 305.625,286.879 305.625 C 286.614 305.625,285.837 305.926,285.152 306.294 C 283.904 306.963,279.925 308.523,276.406 309.721 C 275.375 310.072,274.250 310.532,273.906 310.743 C 273.563 310.954,272.648 311.303,271.875 311.520 C 271.102 311.737,269.836 312.127,269.063 312.387 C 265.027 313.744,260.413 314.806,257.031 315.155 C 256.859 315.173,256.156 315.295,255.469 315.426 C 254.781 315.558,252.250 316.014,249.844 316.441 C 245.729 317.171,242.516 317.791,239.458 318.446 C 238.730 318.602,237.808 318.943,237.408 319.205 C 237.009 319.467,235.917 319.838,234.982 320.030 C 230.179 321.017,228.665 321.274,225.996 321.555 C 224.395 321.724,222.986 321.924,222.864 321.999 C 222.743 322.074,222.013 322.229,221.243 322.343 C 220.474 322.456,218.859 322.807,217.656 323.121 C 216.453 323.436,215.258 323.692,215.000 323.690 C 214.139 323.682,208.668 324.389,208.426 324.538 C 208.295 324.619,207.084 324.758,205.735 324.846 C 204.385 324.935,202.859 325.135,202.344 325.293 C 201.828 325.450,200.828 325.570,200.122 325.559 C 199.415 325.549,197.939 325.704,196.841 325.905 C 190.664 327.034,186.606 327.558,183.125 327.675 C 179.229 327.806,175.823 328.196,173.750 328.748 C 173.148 328.909,171.672 329.270,170.469 329.552 C 169.266 329.834,168.141 330.154,167.969 330.264 C 167.324 330.676,165.441 331.241,164.688 331.249 C 163.652 331.259,160.998 332.076,160.113 332.656 C 159.725 332.910,159.200 333.038,158.947 332.941 C 158.694 332.844,158.159 332.944,157.759 333.164 C 157.359 333.383,156.328 333.667,155.469 333.794 C 154.065 334.002,152.174 334.359,150.023 334.822 C 149.606 334.912,149.128 335.122,148.962 335.288 C 148.795 335.455,148.293 335.519,147.845 335.432 C 147.397 335.344,146.188 335.511,145.156 335.802 C 144.125 336.094,142.932 336.327,142.504 336.320 C 142.077 336.313,141.449 336.456,141.108 336.638 C 140.529 336.949,138.520 337.277,134.844 337.664 C 133.363 337.820,130.377 338.223,123.281 339.228 C 115.907 340.271,117.589 340.169,103.281 340.447 C 97.266 340.564,89.391 340.782,85.781 340.931 C 82.172 341.080,78.305 341.108,77.188 340.992 C 76.070 340.876,73.047 340.852,70.469 340.938 C 62.623 341.199,50.207 339.968,39.576 337.875 C 34.562 336.887,34.328 336.752,34.707 335.068 C 35.025 333.660,34.615 330.007,33.615 325.338 C 33.189 323.348,32.683 320.313,32.491 318.594 C 32.300 316.875,32.011 314.766,31.850 313.906 C 31.689 313.047,31.489 310.375,31.404 307.969 C 31.193 301.969,30.819 298.496,30.006 295.000 C 29.626 293.367,29.133 291.047,28.910 289.844 C 28.686 288.641,28.271 286.391,27.986 284.844 C 27.701 283.297,27.310 281.328,27.118 280.469 C 26.879 279.396,26.780 272.422,26.802 258.205 C 26.830 240.602,26.768 237.437,26.386 237.056 C 25.848 236.518,25.823 236.113,26.280 235.381 C 26.714 234.685,25.807 223.228,25.211 221.875 C 25.097 221.617,24.946 220.703,24.874 219.844 C 24.747 218.318,23.765 212.337,23.129 209.219 C 22.954 208.359,22.799 206.742,22.784 205.625 C 22.758 203.611,22.322 201.419,21.814 200.741 C 21.552 200.392,21.468 199.512,21.090 193.125 C 20.983 191.320,20.771 189.563,20.617 189.219 C 20.464 188.875,20.272 187.609,20.190 186.406 C 19.764 180.125,19.361 176.424,19.072 176.135 C 18.895 175.958,18.750 174.877,18.750 173.734 C 18.750 172.591,18.623 171.248,18.469 170.750 C 17.662 168.154,16.705 156.070,17.252 155.398 C 17.426 155.185,17.481 154.355,17.377 153.523 C 17.165 151.826,16.926 148.675,16.767 145.469 C 16.707 144.266,16.578 143.070,16.480 142.813 C 16.382 142.555,16.205 141.219,16.088 139.844 C 15.687 135.135,15.462 133.281,15.254 132.958 C 15.140 132.780,15.013 130.748,14.972 128.442 C 14.932 126.137,14.790 123.892,14.656 123.453 C 14.277 122.207,13.711 116.470,13.560 112.344 C 13.485 110.281,13.278 107.891,13.102 107.031 C 12.818 105.653,12.669 97.598,12.805 90.985 C 12.831 89.722,12.738 88.759,12.598 88.846 C 12.458 88.932,12.320 86.660,12.290 83.798 C 12.261 80.936,12.176 75.781,12.101 72.344 C 11.997 67.578,12.061 65.945,12.368 65.469 C 12.641 65.046,12.823 63.072,12.929 59.375 C 13.015 56.367,13.108 53.836,13.137 53.750 C 13.165 53.664,13.165 53.155,13.136 52.619 C 13.068 51.337,13.143 51.322,18.438 51.563 C 25.030 51.862,29.931 51.717,31.452 51.179 C 32.192 50.917,32.941 50.829,33.199 50.973 C 33.447 51.111,34.762 51.019,36.122 50.769 C 39.665 50.115,45.421 49.385,47.969 49.265 C 50.111 49.165,51.701 48.882,55.469 47.930 C 60.355 46.695,61.146 46.511,61.875 46.445 C 62.305 46.405,62.867 46.279,63.125 46.164 C 63.383 46.048,64.156 45.818,64.844 45.651 C 65.531 45.484,66.656 45.196,67.344 45.010 C 68.728 44.636,72.274 43.919,75.156 43.430 C 77.559 43.023,87.747 41.955,91.406 41.727 C 96.886 41.385,107.134 40.383,107.508 40.151 C 108.020 39.835,113.940 39.014,115.420 39.055 C 117.358 39.108,118.437 38.444,118.437 37.199 C 118.437 35.933,118.936 35.750,119.327 36.872 C 119.537 37.473,119.808 37.747,120.089 37.639 C 120.329 37.547,120.689 37.669,120.889 37.911 C 121.160 38.237,121.553 38.284,122.424 38.093 C 124.049 37.738,127.045 37.199,128.906 36.928 C 129.766 36.802,130.612 36.610,130.788 36.501 C 130.963 36.391,131.718 36.210,132.466 36.099 C 133.213 35.987,134.054 35.772,134.334 35.619 C 134.777 35.378,138.341 34.514,146.758 32.607 C 147.982 32.329,149.130 32.192,149.308 32.302 C 149.486 32.412,150.312 32.363,151.144 32.192 C 151.976 32.022,153.641 31.679,154.844 31.431 C 156.047 31.183,157.419 31.057,157.892 31.152 C 158.366 31.246,158.929 31.188,159.142 31.022 C 159.356 30.856,160.371 30.688,161.397 30.647 C 162.423 30.607,163.478 30.463,163.741 30.328 C 164.004 30.193,165.766 29.979,167.656 29.852 C 169.547 29.725,171.586 29.572,172.188 29.513 C 172.789 29.454,174.125 29.375,175.156 29.338 C 176.188 29.301,177.260 29.158,177.540 29.020 C 177.820 28.882,180.633 28.683,183.790 28.579 C 186.948 28.474,190.023 28.336,190.625 28.272 C 192.399 28.083,196.222 27.579,198.906 27.179 C 200.591 26.928,202.680 26.886,205.313 27.050 C 207.461 27.184,209.570 27.289,210.000 27.282 C 210.430 27.276,213.594 27.263,217.031 27.253 C 220.469 27.244,224.547 27.211,226.094 27.180 C 232.569 27.052,236.894 27.097,239.688 27.320 C 246.011 27.825,263.068 27.646,264.008 27.065 C 264.213 26.938,264.640 26.917,264.958 27.018 C 265.276 27.119,266.716 27.047,268.158 26.859 C 269.601 26.671,271.344 26.472,272.031 26.417 C 272.719 26.362,274.125 26.157,275.156 25.961 C 276.188 25.765,277.355 25.608,277.750 25.613 C 278.145 25.617,279.094 25.481,279.857 25.310 C 280.621 25.138,282.227 24.859,283.427 24.689 C 284.628 24.519,286.422 24.114,287.414 23.790 C 288.407 23.467,289.781 23.045,290.469 22.853 C 291.156 22.662,292.343 21.923,293.107 21.210 L 294.494 19.915 293.775 19.332 C 293.379 19.012,292.896 18.774,292.700 18.803 C 292.504 18.831,291.781 18.900,291.094 18.955 M158.906 37.407 C 158.391 37.476,157.373 37.807,156.644 38.142 C 155.915 38.476,155.189 38.750,155.029 38.750 C 153.518 38.750,150.245 41.423,149.190 43.520 C 148.910 44.076,148.214 45.023,147.643 45.625 C 145.490 47.892,144.134 53.777,145.025 56.985 C 145.350 58.154,147.248 61.106,147.803 61.307 C 147.955 61.361,148.762 62.055,149.596 62.847 C 152.313 65.428,159.420 67.009,160.494 65.271 C 160.587 65.122,160.889 65.000,161.166 65.000 C 162.087 65.000,165.773 63.401,166.322 62.763 C 166.796 62.211,167.294 61.985,168.228 61.899 C 169.411 61.790,172.583 57.370,173.209 54.959 C 173.802 52.674,173.695 46.538,173.032 44.777 C 172.157 42.454,168.141 38.524,167.065 38.937 C 166.791 39.042,166.080 38.840,165.484 38.488 C 164.889 38.137,163.596 37.700,162.612 37.518 C 160.807 37.185,160.607 37.179,158.906 37.407 M166.018 43.828 C 174.045 51.447,160.936 66.286,152.635 58.978 C 147.763 54.690,147.849 50.837,152.937 45.364 C 154.545 43.635,158.162 42.601,161.094 43.033 C 161.609 43.109,162.453 42.951,162.969 42.681 C 164.219 42.028,164.059 41.968,166.018 43.828 M154.489 49.865 C 153.799 50.917,153.841 52.665,154.594 54.264 C 155.545 56.284,159.712 56.016,160.736 53.870 C 161.013 53.288,161.365 52.813,161.518 52.813 C 161.867 52.813,162.228 51.095,162.003 50.507 C 161.514 49.232,155.254 48.697,154.489 49.865 M307.344 98.750 C 307.193 98.995,307.013 99.013,306.804 98.804 C 306.633 98.633,306.594 98.327,306.719 98.125 C 306.870 97.880,307.050 97.862,307.258 98.071 C 307.430 98.242,307.468 98.548,307.344 98.750 M84.320 107.146 C 83.214 107.407,80.184 110.083,78.979 111.863 C 78.450 112.643,77.612 113.773,77.115 114.375 C 75.106 116.807,73.438 119.035,73.438 119.287 C 73.438 119.434,72.875 120.635,72.187 121.955 C 69.316 127.470,68.395 132.888,68.412 144.157 C 68.418 148.078,68.499 151.409,68.592 151.559 C 68.684 151.709,68.633 151.910,68.478 152.006 C 67.399 152.673,67.883 155.259,69.306 156.430 C 69.740 156.787,70.531 157.967,71.063 159.052 C 72.551 162.085,75.631 163.883,80.000 164.270 C 81.812 164.431,83.010 164.306,87.678 163.469 C 90.051 163.044,91.328 161.689,91.096 159.844 C 90.742 157.022,89.767 156.237,88.414 157.687 C 86.219 160.038,80.063 160.763,77.687 158.951 C 75.412 157.216,74.808 155.415,76.133 154.319 C 79.054 151.904,83.888 146.370,84.819 144.375 C 85.378 143.177,85.687 142.653,86.940 140.781 C 87.764 139.551,89.328 135.085,90.003 132.036 C 90.193 131.180,90.539 130.266,90.773 130.005 C 91.006 129.744,91.295 128.969,91.415 128.281 C 91.535 127.594,91.805 126.750,92.016 126.406 C 92.227 126.063,92.490 125.359,92.601 124.844 C 92.712 124.328,93.079 122.682,93.416 121.186 C 94.250 117.487,94.106 113.152,93.090 111.385 C 91.826 109.186,90.602 107.813,89.896 107.801 C 89.523 107.795,88.867 107.589,88.438 107.344 C 87.635 106.885,85.800 106.797,84.320 107.146 M87.096 112.711 C 88.173 114.355,87.749 118.585,85.879 124.844 C 83.336 133.357,82.193 136.430,80.356 139.688 C 80.210 139.945,79.825 140.708,79.499 141.383 C 79.173 142.058,78.759 142.761,78.579 142.946 C 78.399 143.130,77.713 144.096,77.054 145.093 C 75.644 147.226,73.894 148.706,73.384 148.196 C 72.703 147.516,72.975 134.557,73.719 132.190 C 73.908 131.589,74.062 130.745,74.061 130.315 C 74.061 129.884,74.776 127.914,75.651 125.938 C 77.750 121.197,78.177 120.368,78.828 119.776 C 79.129 119.502,79.375 119.149,79.375 118.990 C 79.375 118.832,79.988 117.905,80.737 116.929 C 81.486 115.954,82.191 114.865,82.303 114.509 C 83.034 112.188,86.019 111.068,87.096 112.711 M130.084 140.538 C 129.507 140.929,128.894 141.250,128.721 141.250 C 128.549 141.250,127.731 141.927,126.904 142.753 C 122.705 146.953,121.985 153.634,125.510 155.693 C 127.657 156.947,133.322 156.697,135.990 155.231 C 137.900 154.182,138.438 154.926,138.438 158.622 C 138.438 159.939,138.240 160.602,137.500 161.769 C 136.984 162.582,136.563 163.404,136.563 163.596 C 136.563 163.788,136.309 164.217,136.000 164.550 C 135.691 164.884,135.093 165.788,134.672 166.561 C 134.251 167.333,133.798 168.107,133.666 168.279 C 132.798 169.418,131.839 170.917,131.467 171.719 C 131.228 172.234,130.679 173.078,130.246 173.594 C 129.307 174.714,128.125 176.971,128.125 177.644 C 128.125 177.908,128.008 178.125,127.865 178.125 C 127.604 178.125,127.389 178.510,126.400 180.752 C 125.605 182.555,125.875 186.109,126.902 187.357 C 128.888 189.772,129.595 190.259,134.143 192.347 C 136.373 193.371,141.808 192.449,144.336 190.617 C 146.057 189.371,146.102 189.275,146.967 185.000 C 147.798 180.897,147.059 173.065,145.301 167.337 C 145.141 166.817,144.973 164.989,144.927 163.274 L 144.844 160.156 146.172 158.268 C 146.902 157.229,147.500 156.220,147.500 156.025 C 147.500 155.830,147.820 155.414,148.211 155.101 C 148.602 154.788,149.531 153.266,150.275 151.719 C 151.020 150.172,151.844 148.664,152.106 148.367 C 152.455 147.973,152.528 147.471,152.381 146.492 C 152.239 145.555,152.272 145.296,152.491 145.625 C 152.768 146.042,152.807 146.042,152.844 145.625 C 152.999 143.839,152.600 142.646,151.712 142.241 C 150.519 141.698,150.398 141.756,149.715 143.203 C 148.604 145.557,145.366 150.625,144.973 150.625 C 144.816 150.625,144.688 150.805,144.688 151.024 C 144.688 151.874,143.573 152.476,143.176 151.840 C 142.597 150.914,142.367 147.132,142.807 145.797 C 143.456 143.832,142.455 142.376,140.680 142.700 C 139.812 142.859,139.479 142.736,138.649 141.952 C 136.500 139.919,132.073 139.188,130.084 140.538 M103.906 142.188 C 103.800 142.359,103.258 142.500,102.703 142.500 C 100.969 142.500,96.274 148.014,95.145 151.375 C 93.681 155.735,98.041 163.716,102.130 164.164 C 102.679 164.224,103.221 164.366,103.335 164.480 C 104.157 165.303,109.504 164.153,111.906 162.636 C 112.570 162.218,113.232 161.875,113.379 161.875 C 114.019 161.875,116.563 158.065,116.563 157.105 C 116.563 156.871,116.844 156.098,117.188 155.386 C 118.542 152.582,117.338 150.028,112.388 145.213 C 109.287 142.195,104.874 140.621,103.906 142.188 M313.125 144.375 C 313.125 145.034,312.670 145.216,312.344 144.688 C 312.116 144.319,312.411 143.750,312.831 143.750 C 312.993 143.750,313.125 144.031,313.125 144.375 M133.679 144.689 C 134.242 145.032,135.125 145.313,135.642 145.313 C 136.830 145.313,137.047 145.863,136.584 147.702 C 135.841 150.651,133.453 152.500,130.389 152.500 C 129.451 152.500,128.688 152.661,128.547 152.887 C 128.384 153.151,128.239 153.026,128.091 152.497 C 126.841 148.004,130.570 142.793,133.679 144.689 M150.625 145.469 C 150.625 145.706,150.484 145.988,150.313 146.094 C 150.135 146.204,150.000 145.935,150.000 145.469 C 150.000 145.003,150.135 144.734,150.313 144.844 C 150.484 144.950,150.625 145.231,150.625 145.469 M106.559 147.247 C 110.220 149.771,112.500 155.502,110.502 157.160 C 110.263 157.358,109.899 157.926,109.694 158.421 C 108.784 160.619,104.495 161.297,102.561 159.549 C 98.678 156.041,98.324 151.695,101.630 148.104 C 103.611 145.952,104.465 145.803,106.559 147.247 M140.513 170.485 C 142.058 176.200,142.510 184.115,141.429 186.512 C 140.553 188.455,137.332 189.441,135.411 188.355 C 130.376 185.509,129.279 182.943,131.898 180.136 C 132.229 179.781,132.500 179.368,132.500 179.218 C 132.500 179.068,133.113 178.163,133.862 177.207 C 134.611 176.251,135.668 174.680,136.211 173.716 C 136.754 172.752,137.477 171.710,137.818 171.402 C 138.159 171.093,138.438 170.713,138.438 170.557 C 138.438 170.091,139.509 168.765,139.813 168.855 C 139.968 168.900,140.283 169.634,140.513 170.485 M200.418 185.359 C 199.581 186.410,199.245 188.496,198.890 194.844 C 198.795 196.563,198.661 198.391,198.594 198.906 C 198.526 199.422,198.316 201.742,198.126 204.063 C 197.936 206.383,197.648 209.222,197.484 210.373 C 197.321 211.523,197.186 213.281,197.185 214.279 C 197.184 215.277,197.047 216.938,196.880 217.969 C 196.714 219.000,196.503 221.883,196.412 224.375 C 196.134 231.938,196.112 231.493,197.098 237.813 C 197.192 238.414,197.462 239.184,197.697 239.523 C 197.932 239.862,198.125 240.348,198.125 240.603 C 198.125 241.606,201.805 246.250,202.599 246.250 C 202.775 246.250,203.142 246.449,203.413 246.692 C 204.737 247.879,211.483 247.428,213.129 246.042 C 214.201 245.141,214.996 245.185,215.489 246.172 C 216.175 247.548,219.227 250.069,221.719 251.318 C 226.096 253.512,237.277 252.001,242.497 248.512 C 243.282 247.987,244.038 247.541,245.990 246.449 C 249.578 244.444,251.366 240.329,249.064 239.376 C 248.123 238.986,246.563 239.551,246.563 240.282 C 246.563 240.429,246.135 240.726,245.612 240.943 C 245.090 241.159,244.098 241.745,243.408 242.245 C 239.875 244.804,233.779 247.335,230.040 247.795 L 227.423 248.117 224.819 246.845 C 221.031 244.995,218.976 242.512,217.940 238.535 C 217.461 236.694,217.343 232.493,217.758 232.016 C 217.900 231.852,218.205 231.119,218.435 230.386 C 218.665 229.653,219.049 228.891,219.288 228.692 C 219.528 228.494,219.905 227.898,220.126 227.368 C 220.836 225.668,225.883 220.774,227.847 219.881 C 234.781 216.728,238.886 221.712,233.322 226.527 C 230.572 228.908,228.274 229.451,226.267 228.196 C 224.507 227.095,220.081 228.097,220.437 229.516 C 221.263 232.807,222.458 233.432,228.125 233.539 C 229.334 233.562,233.894 232.502,234.010 232.170 C 234.068 232.008,234.336 231.875,234.607 231.875 C 234.878 231.875,235.868 231.295,236.807 230.586 C 245.132 224.301,244.731 217.172,235.906 214.551 C 229.694 212.706,223.650 215.653,216.558 223.985 C 212.654 228.571,211.101 234.317,212.318 239.669 C 212.974 242.554,212.969 242.588,211.797 243.124 C 209.542 244.153,205.851 243.160,204.893 241.266 C 204.671 240.828,204.340 240.188,204.157 239.844 C 203.178 238.009,202.263 230.103,202.768 227.854 C 202.935 227.113,202.896 226.240,202.662 225.448 C 202.428 224.652,202.379 223.531,202.527 222.336 C 202.655 221.309,202.773 219.344,202.788 217.969 C 202.804 216.594,202.948 214.625,203.108 213.594 C 203.268 212.563,203.489 210.554,203.599 209.131 C 203.709 207.707,203.929 206.091,204.087 205.539 C 204.245 204.987,204.375 202.565,204.375 200.156 C 204.375 197.748,204.586 193.974,204.844 191.771 C 205.338 187.549,205.270 186.591,204.424 185.825 C 203.674 185.146,200.849 184.818,200.418 185.359 M106.250 223.839 C 106.164 223.925,105.531 224.068,104.844 224.159 C 100.160 224.774,96.259 228.175,96.803 231.168 C 97.369 234.282,102.420 240.323,106.094 242.281 C 108.012 243.303,108.309 243.469,109.531 244.208 C 110.219 244.624,111.667 245.408,112.750 245.950 C 113.833 246.492,115.057 247.273,115.470 247.686 C 115.884 248.100,116.404 248.443,116.626 248.451 C 116.849 248.458,117.546 249.132,118.174 249.948 C 120.413 252.854,119.887 253.533,115.098 253.918 C 113.380 254.056,112.154 253.997,111.367 253.737 C 110.722 253.524,109.060 253.301,107.675 253.242 C 102.558 253.023,100.233 252.478,99.732 251.380 C 99.295 250.419,98.813 250.418,98.449 251.377 C 98.148 252.168,98.797 253.843,99.857 255.015 C 101.049 256.332,103.070 256.754,113.254 257.810 C 116.259 258.121,119.863 257.602,121.822 256.575 C 122.109 256.425,122.787 256.138,123.329 255.938 C 125.718 255.056,126.180 251.305,124.167 249.133 C 123.766 248.700,123.438 248.179,123.438 247.974 C 123.438 247.050,116.909 242.188,115.668 242.188 C 115.343 242.188,114.904 241.980,114.694 241.726 C 114.483 241.473,113.517 240.891,112.546 240.433 C 111.575 239.976,110.458 239.349,110.063 239.041 C 109.669 238.733,108.955 238.395,108.477 238.290 C 107.465 238.068,103.124 234.172,102.173 232.632 C 100.837 230.472,103.485 228.317,107.396 228.382 C 110.224 228.429,112.514 225.958,110.953 224.545 C 110.376 224.023,106.631 223.461,106.250 223.839 M168.125 225.314 C 167.867 225.485,167.305 225.769,166.875 225.944 C 161.890 227.977,158.887 233.408,158.930 240.313 C 158.973 247.286,161.527 250.654,166.952 250.893 C 168.543 250.963,173.731 249.341,174.964 248.389 C 175.374 248.072,175.855 247.813,176.033 247.813 C 176.211 247.813,176.594 247.598,176.883 247.336 C 177.585 246.701,178.231 246.998,178.817 248.226 C 180.202 251.130,181.909 252.200,185.514 252.425 C 189.359 252.665,193.125 251.050,193.125 249.162 C 193.125 247.787,190.231 246.625,189.375 247.656 C 187.989 249.326,184.063 247.430,184.063 245.090 C 184.063 244.601,183.832 243.872,183.550 243.470 C 182.994 242.676,183.018 241.477,183.767 232.873 C 184.322 226.485,183.960 225.289,181.460 225.248 C 178.302 225.197,177.702 225.962,177.365 230.469 C 176.505 241.982,176.466 242.138,173.931 244.215 C 168.351 248.788,163.125 246.754,163.125 240.009 C 163.125 233.670,166.150 229.666,171.029 229.549 C 173.376 229.492,173.740 229.238,173.740 227.656 C 173.740 225.855,169.791 224.207,168.125 225.314 M137.813 226.063 C 136.695 226.465,135.197 226.955,134.482 227.151 C 132.652 227.653,129.990 230.415,128.722 233.125 C 128.360 233.898,127.817 234.813,127.515 235.156 C 124.661 238.405,124.708 247.772,127.600 252.031 C 130.818 256.773,139.267 259.745,145.938 258.483 C 149.573 257.795,150.249 257.574,151.633 256.621 C 153.030 255.660,155.000 253.341,155.000 252.657 C 155.000 251.833,154.196 250.735,153.229 250.237 L 152.184 249.699 150.628 251.247 C 147.889 253.972,146.037 254.564,141.870 254.047 C 138.114 253.581,132.500 250.675,132.500 249.196 C 132.500 248.951,132.377 248.750,132.226 248.750 C 131.784 248.750,130.720 245.920,130.499 244.160 C 129.967 239.910,134.190 231.250,136.795 231.250 C 137.125 231.250,137.499 231.147,137.625 231.021 C 138.438 230.207,141.971 229.968,145.993 230.454 C 148.018 230.699,148.103 230.681,148.883 229.839 C 150.376 228.228,149.741 226.633,147.489 226.339 C 146.722 226.238,145.994 226.002,145.871 225.813 C 145.409 225.098,140.027 225.266,137.813 226.063 M319.836 294.360 C 320.099 294.868,320.929 295.707,321.682 296.224 C 323.783 297.670,323.744 297.977,321.319 299.100 C 318.160 300.562,313.918 301.840,312.143 301.864 C 310.169 301.890,310.493 304.071,312.677 305.469 C 315.039 306.980,314.887 307.439,311.717 308.359 C 310.343 308.758,308.490 309.301,307.600 309.565 C 299.389 311.999,293.379 311.370,299.332 308.699 C 300.471 308.188,301.851 307.428,302.399 307.010 C 302.947 306.592,303.524 306.250,303.681 306.250 C 303.837 306.250,304.748 305.582,305.705 304.766 C 307.470 303.259,310.825 300.702,312.629 299.490 C 313.174 299.123,314.030 298.279,314.532 297.615 C 315.710 296.053,318.483 293.450,318.976 293.443 C 319.187 293.440,319.574 293.853,319.836 294.360 " stroke="none" fill="#000000" fill-rule="evenodd"></path></g></svg>