<?xml version="1.0" encoding="UTF-8"?>
<svg xmlns="http://www.w3.org/2000/svg" xmlns:xlink="http://www.w3.org/1999/xlink" width="64.5pt" height="33pt" viewBox="0 0 64.5 33" version="1.1">
<defs>
<clipPath id="clip1">
  <path d="M 2 0.125 L 15 0.125 L 15 32.871094 L 2 32.871094 Z M 2 0.125 "/>
</clipPath>
</defs>
<g id="surface1">
<path style="fill:none;stroke-width:5.25;stroke-linecap:butt;stroke-linejoin:miter;stroke:rgb(0%,0%,0%);stroke-opacity:1;stroke-miterlimit:10;" d="M 638.505131 69.342276 L 638.505131 249.359783 " transform="matrix(0.0992308,0,0,-0.0992308,0,32.873077)"/>
<path style="fill:none;stroke-width:5.25;stroke-linecap:butt;stroke-linejoin:miter;stroke:rgb(0%,0%,0%);stroke-opacity:1;stroke-miterlimit:10;" d="M 4.01526 69.342276 L 638.505131 69.342276 M 4.01526 114.336811 L 638.505131 114.336811 M 4.01526 159.370712 L 638.505131 159.370712 M 4.01526 204.365247 L 638.505131 204.365247 M 4.01526 249.359783 L 638.505131 249.359783 " transform="matrix(0.0992308,0,0,-0.0992308,0,32.873077)"/>
<g clip-path="url(#clip1)" clip-rule="nonzero">
<path style=" stroke:none;fill-rule:nonzero;fill:rgb(0%,0%,0%);fill-opacity:1;" d="M 7.644531 23.109375 C 5.234375 21.738281 5.234375 17.820312 9.386719 16.816406 C 14.410156 16.480469 16.753906 23.109375 12.402344 25.386719 C 8.582031 27.128906 3.191406 25.386719 2.589844 20.835938 C 2.085938 14.773438 5.703125 13.164062 9.957031 9.648438 C 12.902344 6.734375 12.601562 5.195312 12.03125 2.613281 C 10.324219 3.71875 8.886719 6.132812 9.050781 8.84375 C 9.621094 17.785156 10.257812 21.371094 10.691406 28.066406 C 10.894531 31.28125 10.058594 32.554688 8.113281 32.589844 C 5.433594 32.621094 3.894531 29.472656 6.070312 28.136719 C 8.917969 26.761719 10.527344 31.515625 7.109375 31.652344 C 7.878906 32.222656 10.191406 32.890625 10.125 28.570312 C 9.789062 21.101562 8.816406 17.117188 8.449219 7.90625 C 8.449219 4.890625 8.449219 2.480469 11.664062 0.136719 C 13.539062 2.546875 13.773438 7.839844 12.402344 9.816406 C 9.921875 13.367188 3.792969 15.441406 3.863281 20.398438 C 4.164062 25.523438 8.816406 26.59375 12.300781 24.851562 C 15.179688 22.675781 13.273438 18.421875 9.621094 18.957031 C 7.242188 19.359375 6.105469 21.203125 7.644531 23.109375 "/>
</g>
<path style=" stroke:none;fill-rule:nonzero;fill:rgb(0%,0%,0%);fill-opacity:1;" d="M 29.941406 2.398438 L 49.367188 4.257812 L 49.367188 6.640625 L 29.941406 4.78125 L 29.941406 2.398438 "/>
<path style=" stroke:none;fill-rule:nonzero;fill:rgb(0%,0%,0%);fill-opacity:1;" d="M 30.390625 15.839844 C 29.109375 13.085938 23.617188 15.496094 24.824219 18.25 C 26.027344 21.003906 31.519531 18.578125 30.316406 15.839844 "/>
<path style="fill:none;stroke-width:5.25;stroke-linecap:butt;stroke-linejoin:miter;stroke:rgb(0%,0%,0%);stroke-opacity:1;stroke-miterlimit:10;" d="M 304.018195 166.850119 L 304.018195 299.589903 " transform="matrix(0.0992308,0,0,-0.0992308,0,32.873077)"/>
<path style=" stroke:none;fill-rule:nonzero;fill:rgb(0%,0%,0%);fill-opacity:1;" d="M 49.367188 18.074219 C 48.085938 15.320312 42.59375 17.730469 43.800781 20.484375 C 45.007812 23.238281 50.5 20.8125 49.292969 18.074219 "/>
<path style="fill:none;stroke-width:5.25;stroke-linecap:butt;stroke-linejoin:miter;stroke:rgb(0%,0%,0%);stroke-opacity:1;stroke-miterlimit:10;" d="M 495.254813 144.333168 L 495.254813 281.599962 " transform="matrix(0.0992308,0,0,-0.0992308,0,32.873077)"/>
</g>
</svg>
