<?xml version="1.0" encoding="UTF-8"?>
<svg xmlns="http://www.w3.org/2000/svg" xmlns:xlink="http://www.w3.org/1999/xlink" width="153.5pt" height="33pt" viewBox="0 0 153.5 33" version="1.1">
<defs>
<clipPath id="clip1">
  <path d="M 2 0.0546875 L 15 0.0546875 L 15 32.945312 L 2 32.945312 Z M 2 0.0546875 "/>
</clipPath>
</defs>
<g id="surface1">
<path style="fill:none;stroke-width:5.25;stroke-linecap:butt;stroke-linejoin:miter;stroke:rgb(0%,0%,0%);stroke-opacity:1;stroke-miterlimit:10;" d="M 638.518582 69.337868 L 638.518582 249.336385 " transform="matrix(0.0996753,0,0,-0.0996753,0,32.946429)"/>
<path style="fill:none;stroke-width:5.25;stroke-linecap:butt;stroke-linejoin:miter;stroke:rgb(0%,0%,0%);stroke-opacity:1;stroke-miterlimit:10;" d="M 3.997354 69.337868 L 1530.242134 69.337868 M 3.997354 114.366889 L 1530.242134 114.366889 M 3.997354 159.356721 L 1530.242134 159.356721 M 3.997354 204.346553 L 1530.242134 204.346553 M 3.997354 249.336385 L 1530.242134 249.336385 " transform="matrix(0.0996753,0,0,-0.0996753,0,32.946429)"/>
<g clip-path="url(#clip1)" clip-rule="nonzero">
<path style=" stroke:none;fill-rule:nonzero;fill:rgb(0%,0%,0%);fill-opacity:1;" d="M 7.679688 23.140625 C 5.257812 21.761719 5.257812 17.824219 9.429688 16.816406 C 14.476562 16.480469 16.832031 23.140625 12.457031 25.429688 C 8.621094 27.175781 3.207031 25.429688 2.601562 20.851562 C 2.09375 14.765625 5.730469 13.148438 10 9.617188 C 12.960938 6.691406 12.660156 5.144531 12.085938 2.554688 C 10.371094 3.664062 8.925781 6.085938 9.09375 8.808594 C 9.664062 17.792969 10.304688 21.390625 10.742188 28.121094 C 10.941406 31.347656 10.101562 32.628906 8.152344 32.660156 C 5.460938 32.695312 3.914062 29.53125 6.097656 28.1875 C 8.957031 26.808594 10.574219 31.585938 7.140625 31.71875 C 7.914062 32.292969 10.238281 32.964844 10.167969 28.625 C 9.832031 21.121094 8.859375 17.117188 8.488281 7.867188 C 8.488281 4.839844 8.488281 2.417969 11.71875 0.0625 C 13.601562 2.484375 13.835938 7.800781 12.457031 9.785156 C 9.96875 13.351562 3.8125 15.4375 3.878906 20.417969 C 4.179688 25.5625 8.859375 26.640625 12.355469 24.890625 C 15.25 22.703125 13.332031 18.429688 9.664062 18.96875 C 7.277344 19.371094 6.132812 21.222656 7.679688 23.140625 "/>
</g>
<path style=" stroke:none;fill-rule:nonzero;fill:rgb(0%,0%,0%);fill-opacity:1;" d="M 30.078125 2.335938 L 49.589844 4.203125 L 49.589844 6.597656 L 30.078125 4.726562 L 30.078125 2.335938 "/>
<path style=" stroke:none;fill-rule:nonzero;fill:rgb(0%,0%,0%);fill-opacity:1;" d="M 30.527344 15.835938 C 29.238281 13.070312 23.722656 15.492188 24.933594 18.257812 C 26.144531 21.023438 31.660156 18.589844 30.449219 15.835938 "/>
<path style="fill:none;stroke-width:5.25;stroke-linecap:butt;stroke-linejoin:miter;stroke:rgb(0%,0%,0%);stroke-opacity:1;stroke-miterlimit:10;" d="M 303.994884 166.841963 L 303.994884 299.616833 " transform="matrix(0.0996753,0,0,-0.0996753,0,32.946429)"/>
<path style=" stroke:none;fill-rule:nonzero;fill:rgb(0%,0%,0%);fill-opacity:1;" d="M 49.589844 18.078125 C 48.304688 15.3125 42.785156 17.734375 43.996094 20.5 C 45.207031 23.269531 50.722656 20.832031 49.515625 18.078125 "/>
<path style="fill:none;stroke-width:5.25;stroke-linecap:butt;stroke-linejoin:miter;stroke:rgb(0%,0%,0%);stroke-opacity:1;stroke-miterlimit:10;" d="M 495.24086 144.347047 L 495.24086 281.589549 " transform="matrix(0.0996753,0,0,-0.0996753,0,32.946429)"/>
<path style=" stroke:none;fill-rule:nonzero;fill:rgb(0%,0%,0%);fill-opacity:1;" d="M 71.34375 29.097656 L 128.980469 25.882812 L 128.980469 23.492188 L 71.34375 26.707031 L 71.34375 29.097656 "/>
<path style=" stroke:none;fill-rule:nonzero;fill:rgb(0%,0%,0%);fill-opacity:1;" d="M 77.097656 11.351562 C 75.8125 8.585938 70.296875 11.007812 71.507812 13.773438 C 72.71875 16.539062 78.234375 14.101562 77.023438 11.351562 "/>
<path style="fill:none;stroke-width:5.25;stroke-linecap:butt;stroke-linejoin:miter;stroke:rgb(0%,0%,0%);stroke-opacity:1;stroke-miterlimit:10;" d="M 718.739999 196.861311 L 718.739999 46.098346 " transform="matrix(0.0996753,0,0,-0.0996753,0,32.946429)"/>
<path style=" stroke:none;fill-rule:nonzero;fill:rgb(0%,0%,0%);fill-opacity:1;" d="M 96.085938 11.351562 C 94.800781 8.585938 89.285156 11.007812 90.496094 13.773438 C 91.707031 16.539062 97.222656 14.101562 96.011719 11.351562 "/>
<path style="fill:none;stroke-width:5.25;stroke-linecap:butt;stroke-linejoin:miter;stroke:rgb(0%,0%,0%);stroke-opacity:1;stroke-miterlimit:10;" d="M 909.241369 196.861311 L 909.241369 57.345804 " transform="matrix(0.0996753,0,0,-0.0996753,0,32.946429)"/>
<path style=" stroke:none;fill-rule:nonzero;fill:rgb(0%,0%,0%);fill-opacity:1;" d="M 115.148438 11.351562 C 113.863281 8.585938 108.347656 11.007812 109.558594 13.773438 C 110.769531 16.539062 116.285156 14.101562 115.074219 11.351562 "/>
<path style="fill:none;stroke-width:5.25;stroke-linecap:butt;stroke-linejoin:miter;stroke:rgb(0%,0%,0%);stroke-opacity:1;stroke-miterlimit:10;" d="M 1100.487345 196.861311 L 1100.487345 67.848657 " transform="matrix(0.0996753,0,0,-0.0996753,0,32.946429)"/>
<path style=" stroke:none;fill-rule:nonzero;fill:rgb(0%,0%,0%);fill-opacity:1;" d="M 134.210938 4.625 C 132.925781 1.859375 127.410156 4.28125 128.621094 7.046875 C 129.832031 9.8125 135.347656 7.375 134.136719 4.625 "/>
<path style="fill:none;stroke-width:5.25;stroke-linecap:butt;stroke-linejoin:miter;stroke:rgb(0%,0%,0%);stroke-opacity:1;stroke-miterlimit:10;" d="M 1291.733321 264.346059 L 1291.733321 78.35151 " transform="matrix(0.0996753,0,0,-0.0996753,0,32.946429)"/>
</g>
</svg>
